<svg width="54" height="54" viewBox="0 0 54 54" fill="none" xmlns="http://www.w3.org/2000/svg">
<path d="M15.6418 49.2314C14.346 48.653 13.1737 47.8972 12.0862 47.0412C10.9678 46.1621 9.87262 45.2212 8.86995 44.2109C7.55106 42.8691 6.4327 41.3575 5.47631 39.7303C4.40423 37.918 3.56354 36.0209 2.97736 34.0157C2.6997 33.0286 2.53773 32.0106 2.31406 31.0081C1.93613 29.2729 1.99783 27.4992 2.01326 25.7408C2.02097 24.6612 2.20608 23.6046 2.38348 22.5404C2.61486 21.1291 3.0005 19.7487 3.47869 18.4068C4.0263 16.8875 4.68961 15.4223 5.57658 14.0727C6.27073 13.0161 6.95717 11.9365 7.77473 10.9802C8.63085 9.9622 9.59496 9.02134 10.5976 8.14989C11.5771 7.29386 12.6261 6.52267 13.7059 5.79775C15.1096 4.85689 16.6213 4.12426 18.2179 3.569C19.2822 3.19111 20.3698 2.86721 21.4727 2.58187C22.1437 2.4122 22.8456 2.38136 23.5243 2.24254C24.9512 1.93406 26.3935 1.99576 27.828 2.02661C28.877 2.05745 29.9336 2.17313 30.9749 2.33508C32.047 2.50475 33.119 2.72839 34.1603 3.02916C35.8571 3.51501 37.4999 4.17053 39.0116 5.07282C40.2534 5.80546 41.4489 6.63064 42.5981 7.49437C43.4388 8.12675 44.2409 8.84396 44.9505 9.62287C45.9069 10.6717 46.8247 11.7745 47.6423 12.939C48.3441 13.9184 48.938 14.9904 49.4779 16.0701C50.3263 17.7513 50.9279 19.5404 51.3598 21.3759C51.5835 22.363 51.7146 23.3733 51.8226 24.3835C51.9229 25.3475 51.9769 26.3192 51.9769 27.2832C52 31.1546 51.9846 35.026 52 38.8897C52 39.2753 51.8766 39.3601 51.5218 39.3447C50.7505 39.3216 49.9792 39.3524 49.208 39.337C48.8995 39.3216 48.8146 39.4141 48.8223 39.7226C48.83 43.6557 48.8223 47.5888 48.8377 51.5141C48.8377 51.9152 48.7221 52 48.3441 52C41.1712 51.9846 33.9983 51.9923 26.8254 51.9846C25.4834 51.9846 24.149 51.8303 22.8224 51.6144C21.3801 51.3753 19.961 51.0437 18.6035 50.5193C17.6086 50.126 16.6445 49.671 15.6418 49.2314Z" stroke="white" stroke-width="2.5"/>
<circle cx="42.5" cy="27.5" r="2.5" fill="white"/>
</svg>
